<svg width="512" height="512" viewBox="0 0 512 512" xmlns="http://www.w3.org/2000/svg">
  <defs>
    <linearGradient id="logoGradient" x1="0%" y1="0%" x2="0%" y2="100%">
      <stop offset="0%" style="stop-color:#00d2ff;stop-opacity:1" />
      <stop offset="100%" style="stop-color:#3a7bd5;stop-opacity:1" />
    </linearGradient>
    <linearGradient id="cursorGradient" x1="0%" y1="0%" x2="100%" y2="100%">
      <stop offset="0%" style="stop-color:#2ecc71;stop-opacity:1" />
      <stop offset="100%" style="stop-color:#27ae60;stop-opacity:1" />
    </linearGradient>
  </defs>

  <!-- Background: Rounded Rectangle -->
  <rect x="32" y="32" width="448" height="448" rx="110" ry="110" fill="#222f3e"/>

  <!-- SSP Logo Group: Scaled and Centered -->
  <g transform="translate(63.5, 63.5) scale(1.1)">
    <!-- Outer Body: Gradient -->
    <path d="M309,223.2c-11.2,19.4-22.5,38.8-33.7,58.3-.3.5-2,3.6-4.3,3.5-4.4-.2-11-2.7-15.8-4.1-.5-.2-1-.3-1.5-.5-21,17.3-48,27.7-77.4,27.7s-56.5-10.5-77.6-27.9c-.9.3-1.9.7-2.9,1.1-3.1,1.1-13.4,5.6-15.6,4.8-1-.4-4.3-1.4-5.3-4.3-11.2-19.4-22.5-38.8-33.7-58.3-.3-.5-2.1-3.5-.9-5.5,2.4-3.7,7.8-8.2,11.5-11.6,1.3-1.1,2.6-2.3,3.9-3.4-.7-5.3-1.1-10.8-1.1-16.3,0-51.7,32.4-95.9,78.1-113.3.1-1.3.4-3,.7-4.9.6-3.2,1.8-14.4,3.6-15.8.9-.7,3.4-2.9,6.4-2.4h67.4c.6,0,4.1,0,5.2,2,2,3.9,3.2,10.9,4.3,15.7.4,2,.8,4.2,1.2,6.1,44.7,17.9,75.8,61.6,76.3,112.6.3,36.4.4,19.4-1.5,17.5.5.4,1.2.8,1.7,1.2,2.5,2.1,11.6,8.8,11.9,11.1.2,1.1.9,4.4-1.1,6.7h.2Z" fill="url(#logoGradient)"/>
    <!-- Inner Detail: White -->
    <path d="M182.5,102.9c.2-.5,1.5-1.6,2.3-1.6,2.7-.2,10.8,1.8,13.9,2.6,17.6,4.7,35.4,17,46.2,31.7,21.5,29.4,21.6,68.9,1.9,99.2,0,2.5,12.9,12.8,15,15.8.4.6.8.9.4,1.7l-20.7,20.3-2.2-.9-15-14.7c-29.1,19.2-67.3,19.5-96.3,0l-17.1,15.7-20.1-19.4-.5-2.6,35.3-35.4c1.2-.2,5.5,6.8,6.9,8.2,13.5,15.1,32.8,22.5,53,19.3,2.6-.4,18.1-4.5,18.1-6.9l-77.5-77.5c-5.2,8.6-8.1,20.5-7.6,30.6.2,2.6,2.3,10.7,1.7,12.2l-20.6,20.4c-1.1.2-1.6-1.1-2-1.8-1.8-3.1-4.2-11.7-5-15.5-9.6-44.8,18-89.8,62.3-101.1,2.4-.6,11-2.6,12.8-2.3.6,0,1.7.6,1.7,1.1v26.4c-5.5,2.3-12,2.8-17.4,5.7-1.1.5-3.6,1.6-2.7,3.3l76.4,76.5c2.1-.4,5.6-11.3,6.2-13.7,7.9-33.5-13.8-65.4-47.5-70.9l-1.8-1.5v-25.1h.2l-.3.2h0Z" fill="#ffffff" opacity="0.95"/>
  </g>

  <!-- Mouse Cursor: Redesigned (Sharper, Modern) -->
  <g transform="translate(350, 350)">
    <path d="M0,0 L35,100 L60,60 L100,35 Z" fill="url(#cursorGradient)" stroke="#222f3e" stroke-width="6" stroke-linejoin="round"/>
  </g>
</svg>